<svg version="1" xmlns="http://www.w3.org/2000/svg" width="693.333" height="693.333" viewBox="0 0 520.000000 520.000000"><path d="M119.5 91.1C56.3 98.8 18.3 142.8 11 216.9 9.7 230 9.7 276.5 11 289c2.3 21.7 7.6 41.2 16 58.2 7.1 14.4 13.4 23.2 24.5 34.4 27.7 27.8 64 39.5 109.9 35.5 39.4-3.4 66.6-14.6 86.5-35.6l8.1-8.6V255H140v34h74V361.7l-5.7 4.5c-14.8 11.6-34.2 16.9-62.3 17.1-21.1.2-34.5-3.3-49.2-12.9C74.6 356 59.4 329 53.8 294c-1.8-11.4-1.8-69.9 0-82.5 7.1-49.8 28.9-78 66-85.1 9.9-1.9 29.4-1.8 39 .2 28.2 5.8 46.5 24.3 53.8 54.3l1.7 7.1h20.8c16.1 0 20.9-.3 20.9-1.3-.1-2.9-4-18.8-6.4-25.6-3.3-9.4-10.3-22.5-15.9-29.9-5.1-6.6-15.6-16.6-22-21-11.6-8-29-14.8-45.5-17.8-10.8-1.9-36-2.6-46.7-1.3zM377.5 91.1c-26.6 3.1-48.5 13-65.3 29.3-17.6 17-25 35.7-24 60.5.9 20 7.1 34.2 21.3 48.7 16.5 16.8 39.3 28.5 81.3 41.5 57.7 17.8 72.3 28.2 76.3 54 3.4 21.5-6.9 41.1-26.4 50.3-20.6 9.8-54.2 10.9-78 2.7-21.4-7.4-37.2-23.9-41.2-42.8-.8-3.8-1.5-8.5-1.5-10.6V321h-42.3l.6 8.2c2.1 27.9 18.8 53.2 45.3 69 35 20.7 85 25.5 125.4 12.2 30.2-10 50.7-29.7 58.2-55.9 3.1-11.2 3.1-33.3 0-44.8-5.4-19.6-17.8-35.7-37.6-48.5-15.3-9.9-31.8-16.4-79.1-31.2-45.6-14.2-64.1-33.3-59.6-61.8 3.1-20.3 16.9-34.4 39.6-40.7 8.2-2.3 33.2-3.1 43.3-1.5 15.7 2.5 30.1 9.7 38.7 19.2 8.1 9.1 14.4 25.4 14.5 37.5v4.3h42v-4.8c0-10.2-3.8-24.7-9.3-35.7-14.1-28.4-40.7-47-76.8-54-10.2-2-34.5-2.7-45.4-1.4z"/></svg>